<svg width="296" height="84" viewBox="0 0 296 84" fill="none" xmlns="http://www.w3.org/2000/svg">
<path d="M106.653 24.5348C106.007 23.2883 105.107 22.3469 103.956 21.7106C102.805 21.0761 101.473 20.7571 99.9633 20.7571C98.3094 20.7571 96.8341 21.1299 95.539 21.8719C94.244 22.6156 93.2315 23.6697 92.4999 25.0375C91.7683 26.4036 91.4025 27.9865 91.4025 29.786C91.4025 31.5855 91.7683 33.1736 92.4999 34.5518C93.2315 35.9318 94.244 36.9928 95.539 37.7348C96.8341 38.4785 98.3094 38.8495 99.9633 38.8495C102.193 38.8495 104.003 38.2254 105.395 36.9789C106.785 35.7324 107.636 34.0421 107.949 31.908H98.5608V28.6348H112.336V31.8369C112.073 33.7786 111.383 35.566 110.268 37.1956C109.153 38.827 107.702 40.1272 105.917 41.0981C104.129 42.0689 102.146 42.5544 99.9633 42.5544C97.6125 42.5544 95.4679 42.01 93.5245 40.9178C91.5828 39.8273 90.0416 38.3104 88.9026 36.3669C87.7636 34.4253 87.1949 32.2304 87.1949 29.7843C87.1949 27.3381 87.7636 25.145 88.9026 23.2016C90.0416 21.2599 91.588 19.7429 93.5418 18.6507C95.4957 17.5603 97.6367 17.0142 99.9616 17.0142C102.623 17.0142 104.991 17.6677 107.066 18.9749C109.14 20.2821 110.644 22.1336 111.581 24.5313H106.653V24.5348Z" fill="white"/>
<path d="M122.858 23.0423C123.853 22.4789 125.034 22.1963 126.402 22.1963V26.4403H125.358C123.751 26.4403 122.534 26.8477 121.707 27.6625C120.88 28.4773 120.466 29.892 120.466 31.9065V42.3379H116.366V22.5187H120.466V25.3966C121.066 24.3894 121.863 23.604 122.858 23.0406V23.0423Z" fill="white"/>
<path d="M130.051 27.0537C130.878 25.5194 132.005 24.3267 133.431 23.4755C134.858 22.6242 136.434 22.1978 138.161 22.1978C139.719 22.1978 141.08 22.5029 142.244 23.1149C143.407 23.7268 144.336 24.4879 145.031 25.3998V22.5219H149.168V42.3411H145.031V39.3921C144.336 40.3266 143.388 41.1067 142.19 41.7308C140.99 42.3532 139.624 42.6653 138.09 42.6653C136.387 42.6653 134.829 42.2284 133.414 41.3529C131.999 40.4774 130.878 39.2552 130.051 37.6845C129.224 36.1138 128.81 34.3333 128.81 32.3431C128.81 30.3529 129.224 28.5897 130.051 27.0555V27.0537ZM144.187 28.8515C143.624 27.8443 142.887 27.078 141.975 26.5492C141.063 26.0222 140.08 25.7587 139.026 25.7587C137.972 25.7587 136.987 26.017 136.077 26.5319C135.165 27.0485 134.428 27.8027 133.865 28.7978C133.301 29.7929 133.019 30.9735 133.019 32.3414C133.019 33.7092 133.3 34.9072 133.865 35.9387C134.428 36.9702 135.172 37.7556 136.094 38.2947C137.017 38.8339 137.994 39.1044 139.026 39.1044C140.057 39.1044 141.065 38.8408 141.975 38.3138C142.887 37.7868 143.624 37.0136 144.187 35.9942C144.75 34.9748 145.033 33.782 145.033 32.4159C145.033 31.0498 144.75 29.8622 144.187 28.855V28.8515Z" fill="white"/>
<path d="M172.404 22.5225L160.246 51.6565H156.002L160.031 42.0174L152.226 22.5225H156.794L162.37 37.6295L168.16 22.5225H172.404Z" fill="white"/>
<path d="M189.13 17.3423V35.3619C189.13 37.5914 188.452 39.3545 187.098 40.6495C185.743 41.9446 183.964 42.5912 181.757 42.5912C179.55 42.5912 177.769 41.9446 176.415 40.6495C175.06 39.3545 174.384 37.5914 174.384 35.3619H178.52C178.544 36.4645 178.825 37.34 179.366 37.9884C179.905 38.635 180.703 38.9592 181.759 38.9592C182.814 38.9592 183.617 38.6298 184.168 37.9693C184.72 37.3105 184.995 36.4402 184.995 35.3619V17.3423H189.132H189.13Z" fill="white"/>
<path d="M195.659 27.0537C196.486 25.5194 197.613 24.3267 199.04 23.4755C200.467 22.6242 202.043 22.1978 203.769 22.1978C205.328 22.1978 206.689 22.5029 207.852 23.1149C209.015 23.7268 209.945 24.4879 210.64 25.3998V22.5219H214.776V42.3411H210.64V39.3921C209.945 40.3266 208.996 41.1067 207.798 41.7308C206.599 42.3532 205.232 42.6653 203.698 42.6653C201.996 42.6653 200.437 42.2284 199.023 41.3529C197.608 40.4774 196.486 39.2552 195.659 37.6845C194.832 36.1138 194.418 34.3333 194.418 32.3431C194.418 30.3529 194.832 28.5897 195.659 27.0555V27.0537ZM209.795 28.8515C209.232 27.8443 208.495 27.078 207.583 26.5492C206.671 26.0222 205.688 25.7587 204.634 25.7587C203.58 25.7587 202.596 26.017 201.685 26.5319C200.774 27.0485 200.037 27.8027 199.473 28.7978C198.91 29.7929 198.627 30.9735 198.627 32.3414C198.627 33.7092 198.908 34.9072 199.473 35.9387C200.037 36.9702 200.78 37.7556 201.703 38.2947C202.625 38.8339 203.603 39.1044 204.634 39.1044C205.666 39.1044 206.673 38.8408 207.583 38.3138C208.495 37.7868 209.232 37.0136 209.795 35.9942C210.359 34.9748 210.641 33.782 210.641 32.4159C210.641 31.0498 210.359 29.8622 209.795 28.855V28.8515Z" fill="white"/>
<path d="M238.011 22.5225L225.853 51.6565H221.609L225.638 42.0174L217.833 22.5225H222.401L227.976 37.6295L233.767 22.5225H238.011Z" fill="white"/>
<path d="M244.108 41.8195C242.872 41.2561 241.896 40.4881 241.177 39.5172C240.457 38.5464 240.074 37.4611 240.025 36.2614H244.269C244.34 37.1005 244.743 37.8026 245.474 38.3661C246.206 38.9295 247.123 39.2121 248.226 39.2121C249.328 39.2121 250.27 38.9902 250.906 38.5464C251.54 38.1026 251.859 37.5339 251.859 36.837C251.859 36.0933 251.506 35.542 250.798 35.1831C250.091 34.8225 248.969 34.4272 247.435 33.9955C245.948 33.5881 244.738 33.1929 243.803 32.808C242.869 32.4248 242.059 31.8371 241.376 31.0449C240.693 30.2543 240.351 29.2107 240.351 27.9156C240.351 26.8616 240.663 25.8959 241.286 25.0204C241.91 24.1449 242.803 23.4549 243.966 22.9522C245.129 22.4494 246.466 22.1963 247.976 22.1963C250.23 22.1963 252.047 22.7667 253.425 23.9057C254.803 25.0447 255.542 26.598 255.637 28.564H251.537C251.466 27.6764 251.105 26.969 250.459 26.442C249.812 25.915 248.936 25.6515 247.832 25.6515C246.728 25.6515 245.925 25.856 245.351 26.2634C244.776 26.6709 244.488 27.2118 244.488 27.8827C244.488 28.4097 244.68 28.8535 245.063 29.2141C245.447 29.573 245.915 29.8556 246.466 30.0601C247.017 30.2647 247.832 30.5213 248.912 30.8334C250.351 31.2165 251.532 31.6066 252.456 32.0018C253.378 32.3971 254.176 32.9796 254.848 33.7459C255.519 34.5139 255.868 35.5333 255.892 36.8041C255.892 37.9309 255.58 38.9382 254.957 39.8258C254.333 40.7135 253.453 41.4086 252.314 41.9114C251.175 42.4142 249.838 42.6673 248.304 42.6673C246.769 42.6673 245.348 42.3847 244.113 41.8213L244.108 41.8195Z" fill="white"/>
<path d="M119.529 67.9253C118.707 67.4589 118.059 66.8071 117.582 65.9697C117.105 65.1324 116.866 64.191 116.866 63.1456C116.866 62.1002 117.105 61.1571 117.582 60.3215C118.059 59.4859 118.709 58.834 119.529 58.3659C120.351 57.8996 121.258 57.6655 122.254 57.6655C123.251 57.6655 124.174 57.8996 124.995 58.3659C125.817 58.8323 126.462 59.4824 126.935 60.3128C127.407 61.1432 127.643 62.0881 127.643 63.1456C127.643 64.2031 127.407 65.1462 126.935 65.9784C126.464 66.8088 125.817 67.4589 124.995 67.9253C124.174 68.3916 123.262 68.6257 122.254 68.6257C121.247 68.6257 120.351 68.3916 119.529 67.9253ZM124.278 66.8868C124.877 66.5384 125.349 66.0408 125.694 65.3942C126.037 64.7475 126.209 63.9986 126.209 63.1473C126.209 62.2961 126.037 61.5333 125.694 60.8919C125.351 60.2504 124.881 59.7546 124.285 59.4061C123.69 59.0577 123.012 58.8826 122.253 58.8826C121.493 58.8826 120.815 59.0577 120.221 59.4061C119.626 59.7546 119.156 60.2504 118.813 60.8919C118.47 61.5333 118.298 62.2857 118.298 63.1473C118.298 64.009 118.47 64.7475 118.813 65.3942C119.156 66.0408 119.63 66.5384 120.229 66.8868C120.829 67.2353 121.504 67.4104 122.254 67.4104C123.005 67.4104 123.678 67.2353 124.279 66.8868H124.278Z" fill="#FFD95F"/>
<path d="M132.128 60.4293C132.677 60.1051 133.315 59.9438 134.045 59.9438C134.775 59.9438 135.474 60.1241 136.084 60.483C136.694 60.8419 137.174 61.3481 137.523 62C137.871 62.6518 138.046 63.4077 138.046 64.271C138.046 65.1344 137.871 65.8816 137.523 66.5491C137.174 67.2165 136.694 67.7349 136.084 68.1042C135.474 68.4734 134.794 68.6589 134.045 68.6589C133.296 68.6589 132.693 68.4977 132.143 68.1735C131.594 67.851 131.176 67.4471 130.888 66.9651V72.5215H129.487V60.0843H130.888V61.6394C131.166 61.1574 131.578 60.7535 132.128 60.431V60.4293ZM136.23 62.6067C135.973 62.1352 135.626 61.7763 135.191 61.5284C134.754 61.2822 134.276 61.1591 133.752 61.1591C133.229 61.1591 132.764 61.284 132.329 61.5353C131.892 61.7867 131.543 62.1508 131.282 62.6275C131.02 63.1043 130.89 63.6556 130.89 64.2832C130.89 64.9108 131.02 65.4759 131.282 65.9527C131.543 66.4294 131.892 66.7935 132.329 67.0449C132.764 67.2963 133.239 67.4211 133.752 67.4211C134.265 67.4211 134.756 67.2963 135.191 67.0449C135.628 66.7935 135.973 66.4294 136.23 65.9527C136.486 65.4759 136.614 64.9142 136.614 64.2676C136.614 63.6209 136.486 63.0766 136.23 62.605V62.6067Z" fill="#FFD95F"/>
<path d="M142.535 60.4293C143.084 60.1051 143.722 59.9438 144.452 59.9438C145.182 59.9438 145.881 60.1241 146.491 60.483C147.101 60.8419 147.581 61.3481 147.93 62C148.278 62.6518 148.453 63.4077 148.453 64.271C148.453 65.1344 148.278 65.8816 147.93 66.5491C147.581 67.2165 147.101 67.7349 146.491 68.1042C145.881 68.4734 145.201 68.6589 144.452 68.6589C143.703 68.6589 143.1 68.4977 142.55 68.1735C142.001 67.851 141.583 67.4471 141.295 66.9651V72.5215H139.894V60.0843H141.295V61.6394C141.572 61.1574 141.985 60.7535 142.535 60.431V60.4293ZM146.636 62.6067C146.38 62.1352 146.033 61.7763 145.598 61.5284C145.161 61.2822 144.683 61.1591 144.159 61.1591C143.636 61.1591 143.171 61.284 142.736 61.5353C142.299 61.7867 141.95 62.1508 141.689 62.6275C141.427 63.1043 141.297 63.6556 141.297 64.2832C141.297 64.9108 141.429 65.4759 141.689 65.9527C141.95 66.4294 142.299 66.7935 142.736 67.0449C143.171 67.2963 143.646 67.4211 144.159 67.4211C144.672 67.4211 145.163 67.2963 145.598 67.0449C146.035 66.7935 146.38 66.4294 146.636 65.9527C146.893 65.4759 147.021 64.9142 147.021 64.2676C147.021 63.6209 146.893 63.0766 146.636 62.605V62.6067Z" fill="#FFD95F"/>
<path d="M151.832 68.1178C151.191 67.7589 150.688 67.2475 150.324 66.5869C149.96 65.9247 149.778 65.1584 149.778 64.2864C149.778 63.4144 149.965 62.662 150.34 61.9997C150.714 61.3374 151.226 60.8295 151.87 60.4758C152.517 60.1221 153.24 59.9453 154.041 59.9453C154.842 59.9453 155.565 60.1221 156.212 60.4758C156.858 60.8295 157.368 61.3357 157.742 61.9928C158.117 62.6498 158.304 63.4144 158.304 64.2864C158.304 65.1584 158.112 65.9264 157.727 66.5869C157.342 67.2475 156.82 67.7589 156.165 68.1178C155.508 68.4766 154.78 68.6569 153.979 68.6569C153.178 68.6569 152.472 68.4784 151.831 68.1178H151.832ZM155.397 67.0706C155.837 66.8349 156.194 66.4812 156.466 66.0079C156.739 65.5363 156.874 64.9608 156.874 64.2846C156.874 63.6085 156.74 63.033 156.473 62.5597C156.206 62.0881 155.858 61.7362 155.426 61.5056C154.995 61.275 154.528 61.1589 154.025 61.1589C153.523 61.1589 153.042 61.275 152.618 61.5056C152.191 61.7362 151.85 62.0881 151.595 62.5597C151.338 63.0312 151.21 63.6068 151.21 64.2846C151.21 64.9625 151.335 65.552 151.586 66.0235C151.838 66.4951 152.174 66.847 152.595 67.0776C153.016 67.3081 153.478 67.4243 153.98 67.4243C154.483 67.4243 154.955 67.3064 155.397 67.0706Z" fill="#FFD95F"/>
<path d="M162.607 60.3282C163.063 60.0612 163.619 59.9277 164.277 59.9277V61.3753H163.907C162.337 61.3753 161.551 62.2266 161.551 63.9307V68.518H160.15V60.082H161.551V61.4516C161.797 60.9697 162.149 60.5952 162.605 60.3282H162.607Z" fill="#FFD95F"/>
<path d="M167.601 61.2371V66.2092C167.601 66.6201 167.688 66.9096 167.863 67.0795C168.038 67.2494 168.34 67.3343 168.772 67.3343H169.803V68.5201H168.541C167.761 68.5201 167.177 68.3398 166.786 67.981C166.396 67.6221 166.202 67.0327 166.202 66.2109V61.2388H165.11V60.0842H166.202V57.9604H167.603V60.0842H169.805V61.2388H167.603L167.601 61.2371Z" fill="#FFD95F"/>
<path d="M178.978 60.082V68.518H177.577V67.2715C177.31 67.7032 176.937 68.0395 176.461 68.2805C175.984 68.5215 175.457 68.6428 174.883 68.6428C174.226 68.6428 173.637 68.5076 173.113 68.2354C172.589 67.9632 172.177 67.5558 171.873 67.0114C171.57 66.4671 171.419 65.8066 171.419 65.0264V60.0855H172.804V64.8426C172.804 65.6731 173.014 66.3128 173.435 66.7583C173.857 67.2039 174.431 67.4275 175.159 67.4275C175.887 67.4275 176.499 67.1969 176.929 66.7341C177.359 66.2712 177.575 65.6003 177.575 64.7178V60.0838H178.976L178.978 60.082Z" fill="#FFD95F"/>
<path d="M187.951 60.8587C188.587 61.4794 188.906 62.3757 188.906 63.5441V68.5163H187.521V63.7435C187.521 62.9027 187.311 62.2578 186.89 61.8122C186.469 61.3667 185.895 61.143 185.167 61.143C184.439 61.143 183.84 61.3736 183.404 61.8365C182.967 62.2976 182.75 62.9703 182.75 63.8527V68.5163H181.349V60.0803H182.75V61.2817C183.027 60.85 183.404 60.5172 183.882 60.2814C184.359 60.0456 184.886 59.9277 185.46 59.9277C186.486 59.9277 187.316 60.2381 187.953 60.8587H187.951Z" fill="#FFD95F"/>
<path d="M191.245 58.4354C191.061 58.2499 190.968 58.0245 190.968 57.7575C190.968 57.4905 191.06 57.2651 191.245 57.0796C191.431 56.8941 191.656 56.8022 191.923 56.8022C192.19 56.8022 192.398 56.8941 192.576 57.0796C192.755 57.2651 192.845 57.4905 192.845 57.7575C192.845 58.0245 192.755 58.2499 192.576 58.4354C192.396 58.6209 192.178 58.7127 191.923 58.7127C191.668 58.7127 191.431 58.6209 191.245 58.4354ZM192.599 60.0823V68.5183H191.198V60.0823H192.599Z" fill="#FFD95F"/>
<path d="M196.696 61.2371V66.2092C196.696 66.6201 196.783 66.9096 196.958 67.0795C197.133 67.2494 197.434 67.3343 197.866 67.3343H198.898V68.5201H197.636C196.855 68.5201 196.271 68.3398 195.881 67.981C195.491 67.6221 195.297 67.0327 195.297 66.2109V61.2388H194.205V60.0842H195.297V57.9604H196.698V60.0842H198.899V61.2388H196.698L196.696 61.2371Z" fill="#FFD95F"/>
<path d="M207.855 60.082L202.776 72.4898H201.328L202.991 68.4261L199.589 60.0838H201.144L203.792 66.9178L206.408 60.0838H207.855V60.082Z" fill="#FFD95F"/>
<path d="M214.866 68.2475C214.306 67.9961 213.868 67.6477 213.551 67.2004C213.232 66.7548 213.069 66.2382 213.058 65.654H214.551C214.603 66.1567 214.809 66.5797 215.175 66.9247C215.539 67.268 216.07 67.4396 216.768 67.4396C217.467 67.4396 217.961 67.2732 218.346 66.9386C218.731 66.6057 218.923 66.1758 218.923 65.654C218.923 65.2431 218.81 64.9102 218.585 64.6536C218.36 64.3971 218.077 64.2029 217.739 64.0694C217.401 63.9359 216.943 63.792 216.369 63.6377C215.662 63.4522 215.093 63.2685 214.669 63.083C214.242 62.8975 213.878 62.6079 213.577 62.2127C213.273 61.8174 213.122 61.2869 213.122 60.6194C213.122 60.0352 213.271 59.5168 213.57 59.0643C213.868 58.6136 214.286 58.2634 214.825 58.0172C215.364 57.771 215.981 57.6479 216.68 57.6479C217.685 57.6479 218.509 57.8993 219.15 58.4021C219.792 58.9048 220.154 59.5723 220.236 60.4027H218.696C218.644 59.9919 218.429 59.6313 218.049 59.3175C217.67 59.0054 217.167 58.8476 216.541 58.8476C215.957 58.8476 215.478 58.9985 215.109 59.3019C214.74 59.6052 214.554 60.0283 214.554 60.5709C214.554 60.961 214.665 61.2782 214.885 61.5244C215.106 61.7706 215.378 61.9578 215.702 62.0861C216.024 62.2144 216.479 62.36 217.065 62.5247C217.772 62.7189 218.342 62.9113 218.774 63.102C219.206 63.2927 219.575 63.584 219.882 63.9793C220.19 64.3745 220.343 64.9102 220.343 65.5881C220.343 66.1117 220.204 66.604 219.927 67.0652C219.65 67.5263 219.239 67.9025 218.696 68.1886C218.152 68.4764 217.51 68.6202 216.772 68.6202C216.033 68.6202 215.43 68.4954 214.87 68.244L214.866 68.2475Z" fill="#FFD95F"/>
<path d="M224.11 61.2371V66.2092C224.11 66.6201 224.197 66.9096 224.372 67.0795C224.547 67.2494 224.849 67.3343 225.28 67.3343H226.312V68.5201H225.05C224.27 68.5201 223.685 68.3398 223.295 67.981C222.905 67.6221 222.711 67.0327 222.711 66.2109V61.2388H221.619V60.0842H222.711V57.9604H224.112V60.0842H226.314V61.2388H224.112L224.11 61.2371Z" fill="#FFD95F"/>
<path d="M228.006 61.998C228.354 61.3462 228.834 60.8417 229.445 60.4811C230.055 60.1222 230.735 59.9419 231.483 59.9419C232.232 59.9419 232.863 60.1014 233.408 60.4186C233.952 60.7376 234.356 61.1364 234.623 61.6201V60.0806H236.039V68.5165H234.623V66.9459C234.346 67.4382 233.933 67.8474 233.384 68.1698C232.834 68.4923 232.196 68.6552 231.468 68.6552C230.74 68.6552 230.041 68.4715 229.436 68.1005C228.831 67.7312 228.352 67.2128 228.004 66.5454C227.656 65.8779 227.48 65.1186 227.48 64.2674C227.48 63.4161 227.656 62.6481 228.004 61.9963L228.006 61.998ZM234.24 62.6221C233.983 62.1506 233.637 61.7882 233.201 61.5369C232.765 61.2855 232.286 61.1607 231.763 61.1607C231.239 61.1607 230.762 61.2837 230.331 61.5299C229.899 61.7761 229.556 62.135 229.299 62.6083C229.042 63.0798 228.914 63.6346 228.914 64.2708C228.914 64.9071 229.042 65.4792 229.299 65.9559C229.556 66.4327 229.899 66.7968 230.331 67.0481C230.762 67.2995 231.239 67.4243 231.763 67.4243C232.286 67.4243 232.766 67.2995 233.201 67.0481C233.638 66.7968 233.983 66.4327 234.24 65.9559C234.497 65.4792 234.625 64.9227 234.625 64.2864C234.625 63.6502 234.497 63.0954 234.24 62.6239V62.6221Z" fill="#FFD95F"/>
<path d="M240.866 60.3282C241.322 60.0612 241.878 59.9277 242.536 59.9277V61.3753H242.166C240.596 61.3753 239.81 62.2266 239.81 63.9307V68.518H238.409V60.082H239.81V61.4516C240.056 60.9697 240.408 60.5952 240.864 60.3282H240.866Z" fill="#FFD95F"/>
<path d="M245.86 61.2371V66.2092C245.86 66.6201 245.947 66.9096 246.122 67.0795C246.297 67.2494 246.599 67.3343 247.031 67.3343H248.062V68.5201H246.8C246.02 68.5201 245.436 68.3398 245.045 67.981C244.655 67.6221 244.461 67.0327 244.461 66.2109V61.2388H243.369V60.0842H244.461V57.9604H245.862V60.0842H248.064V61.2388H245.862L245.86 61.2371Z" fill="#FFD95F"/>
<path d="M251.003 68.3241C250.489 68.1039 250.084 67.7953 249.787 67.4001C249.489 67.0048 249.326 66.5506 249.295 66.0374H250.743C250.782 66.4587 250.982 66.802 251.335 67.0689C251.689 67.3359 252.154 67.4694 252.729 67.4694C253.263 67.4694 253.683 67.3515 253.991 67.1158C254.3 66.88 254.453 66.5818 254.453 66.2229C254.453 65.8641 254.288 65.5797 253.96 65.3994C253.631 65.2191 253.123 65.0423 252.436 64.8689C251.81 64.7042 251.299 64.5378 250.906 64.3679C250.51 64.198 250.172 63.9466 249.89 63.6138C249.607 63.2809 249.467 62.8423 249.467 62.2979C249.467 61.8663 249.595 61.4727 249.851 61.1121C250.108 60.7532 250.472 60.4689 250.944 60.2574C251.415 60.0476 251.954 59.9419 252.559 59.9419C253.494 59.9419 254.248 60.1777 254.822 60.6492C255.396 61.1208 255.704 61.7674 255.746 62.5892H254.345C254.314 62.1488 254.137 61.7934 253.815 61.5265C253.492 61.2595 253.057 61.126 252.514 61.126C252.012 61.126 251.611 61.2335 251.315 61.4502C251.016 61.6651 250.867 61.9477 250.867 62.2962C250.867 62.5736 250.958 62.8024 251.136 62.981C251.315 63.1613 251.542 63.3034 251.814 63.4127C252.086 63.5202 252.462 63.6415 252.946 63.775C253.551 63.9397 254.043 64.1009 254.423 64.2604C254.803 64.4199 255.129 64.6574 255.401 64.9764C255.673 65.2954 255.813 65.7098 255.824 66.2229C255.824 66.6841 255.696 67.1002 255.439 67.4694C255.182 67.8387 254.82 68.1282 254.354 68.3397C253.887 68.5495 253.35 68.6552 252.745 68.6552C252.098 68.6552 251.519 68.5443 251.006 68.3241H251.003Z" fill="#FFD95F"/>
<path d="M270.166 57.7886V68.5182H268.766V63.6535H263.301V68.5182H261.9V57.7886H263.301V62.4989H268.766V57.7886H270.166Z" fill="#FFD95F"/>
<path d="M280.204 64.8221H273.462C273.514 65.6526 273.798 66.3027 274.317 66.769C274.835 67.2354 275.464 67.4694 276.203 67.4694C276.808 67.4694 277.314 67.329 277.72 67.0464C278.126 66.7638 278.41 66.3876 278.575 65.9143H280.083C279.858 66.7257 279.405 67.3845 278.729 67.8924C278.053 68.4004 277.21 68.6535 276.205 68.6535C275.404 68.6535 274.688 68.4749 274.057 68.1143C273.426 67.7555 272.93 67.244 272.571 66.5835C272.212 65.9213 272.032 65.155 272.032 64.283C272.032 63.4109 272.207 62.6464 272.555 61.9893C272.904 61.3323 273.394 60.8278 274.026 60.4724C274.657 60.117 275.383 59.9419 276.203 59.9419C277.023 59.9419 277.711 60.117 278.327 60.4655C278.942 60.8139 279.417 61.2941 279.75 61.9044C280.083 62.5146 280.251 63.2046 280.251 63.9744C280.251 64.2414 280.235 64.5239 280.204 64.8204V64.8221ZM278.45 62.3049C278.214 61.92 277.893 61.627 277.488 61.4276C277.082 61.2283 276.633 61.1277 276.141 61.1277C275.433 61.1277 274.83 61.3531 274.332 61.8056C273.835 62.2581 273.55 62.8839 273.478 63.6831H278.803C278.803 63.1492 278.686 62.6897 278.45 62.3049Z" fill="#FFD95F"/>
<path d="M284.552 60.3282C285.008 60.0612 285.565 59.9277 286.222 59.9277V61.3753H285.852C284.282 61.3753 283.496 62.2266 283.496 63.9307V68.518H282.096V60.082H283.496V61.4516C283.743 60.9697 284.094 60.5952 284.55 60.3282H284.552Z" fill="#FFD95F"/>
<path d="M295.49 64.8221H288.748C288.8 65.6526 289.084 66.3027 289.603 66.769C290.121 67.2354 290.75 67.4694 291.489 67.4694C292.094 67.4694 292.6 67.329 293.006 67.0464C293.411 66.7638 293.696 66.3876 293.86 65.9143H295.369C295.143 66.7257 294.691 67.3845 294.015 67.8924C293.337 68.4004 292.496 68.6535 291.491 68.6535C290.69 68.6535 289.974 68.4749 289.343 68.1143C288.711 67.7555 288.216 67.244 287.857 66.5835C287.498 65.9213 287.318 65.155 287.318 64.283C287.318 63.4109 287.493 62.6464 287.841 61.9893C288.19 61.3323 288.68 60.8278 289.311 60.4724C289.942 60.1187 290.669 59.9419 291.489 59.9419C292.309 59.9419 292.997 60.117 293.613 60.4655C294.228 60.8139 294.703 61.2941 295.036 61.9044C295.369 62.5146 295.537 63.2046 295.537 63.9744C295.537 64.2414 295.521 64.5239 295.49 64.8204V64.8221ZM293.736 62.3049C293.5 61.92 293.179 61.627 292.773 61.4276C292.368 61.2283 291.919 61.1277 291.426 61.1277C290.719 61.1277 290.116 61.3531 289.618 61.8056C289.121 62.2581 288.836 62.8839 288.763 63.6831H294.089C294.089 63.1492 293.971 62.6897 293.736 62.3049Z" fill="#FFD95F"/>
<mask id="mask0_1_447" style="mask-type:luminance" maskUnits="userSpaceOnUse" x="0" y="0" width="90" height="84">
<path d="M89.8493 0.974609H0.00267029V83.6595H89.8493V0.974609Z" fill="white"/>
</mask>
<g mask="url(#mask0_1_447)">
<path fill-rule="evenodd" clip-rule="evenodd" d="M40.534 34.8291L40.111 34.283C39.525 34.7424 38.972 35.2365 38.1572 36.0288C37.3423 36.8228 36.2692 37.915 35.1943 39.1909C34.0865 40.4652 32.9475 41.9214 32.1327 43.6291C31.2867 45.3367 30.7319 47.2958 30.4389 49.1629C30.1459 51.0318 30.113 52.8088 30.4389 54.7418C30.7649 56.6749 31.415 58.7656 32.6216 60.8894C33.8265 63.0131 35.5515 65.1715 37.8971 67.1583C40.2081 69.1468 43.1067 70.9654 45.9066 72.6383C48.7394 74.3113 51.4751 75.8404 54.2749 77.2464L55.6099 76.8598C54.828 76.4316 54.0149 76.0034 52.973 75.4434C51.931 74.8817 50.6273 74.1882 49.0982 73.3595C47.6004 72.5309 45.8737 71.5652 44.0516 70.4886C42.2607 69.412 40.371 68.2244 38.679 66.8687C36.9852 65.513 35.4873 63.9891 34.2824 62.2173C33.0775 60.4473 32.1327 58.4293 31.5467 56.3819C30.9608 54.3344 30.7649 52.2558 30.9608 50.1216C31.1879 47.9875 31.8397 45.7962 32.8175 43.9117C33.7623 42.0255 35.0314 40.4444 36.3663 38.9638C37.6683 37.4833 39.0691 36.1016 40.534 34.8308M35.5515 30.2522L35.1597 29.7633C34.2478 30.4967 33.4017 31.3115 32.131 32.7469C30.8602 34.1824 29.2011 36.2403 28.0274 37.908C26.8555 39.5758 26.2365 40.8535 25.6835 42.3462C25.0975 43.8389 24.6086 45.5483 24.3157 47.5541C24.0227 49.5599 23.9239 51.864 24.0556 53.7623C24.1856 55.6607 24.5445 57.1551 24.8375 58.249C25.1634 59.3429 25.4235 60.0381 25.8465 61.009C26.2695 61.9798 26.8555 63.2281 27.4414 64.2943C28.0274 65.3622 28.5805 66.2481 29.4594 67.4148C30.3384 68.5816 31.5762 70.0275 32.684 71.1249C33.7918 72.2223 34.7679 72.9712 35.7768 73.6907C36.7858 74.4101 37.7966 75.1019 39.1627 75.9635C40.5305 76.8234 42.2555 77.8532 43.9822 78.8448L45.7402 78.8205C44.7641 78.3005 43.8193 77.7665 42.8103 77.1857C41.7684 76.6049 40.6935 75.9756 39.5874 75.3134C38.4796 74.6494 37.3077 73.9524 36.2987 73.2538C35.2897 72.5551 34.4107 71.8565 33.53 71.0503C32.6511 70.2442 31.7721 69.3288 30.9902 68.3718C30.2084 67.4131 29.5253 66.4128 28.8405 65.2772C28.1245 64.1417 27.3756 62.8727 26.6596 61.1945C25.9436 59.5163 25.2588 57.4273 24.9346 55.3971C24.6086 53.3653 24.6416 51.3924 24.8045 49.5617C24.9675 47.7309 25.2934 46.0458 25.6506 44.6294C26.0406 43.213 26.4325 42.0688 27.0514 40.8483C27.6703 39.6296 28.5163 38.3363 29.4611 37.0256C30.406 35.7167 31.4809 34.3905 32.4898 33.248C33.5318 32.1055 34.5078 31.1485 35.5515 30.2557V30.2522ZM48.4464 78.4149L52.68 77.7648L49.4883 76.0432L48.4464 78.4149ZM48.4464 78.4305L49.4883 76.0432L46.2967 74.2662L45.2218 76.6431L48.4464 78.4305ZM41.9331 74.7811L43.0721 72.4303L39.9792 70.5146L38.7743 72.7909L41.9331 74.7794V74.7811ZM36.0386 70.7487L37.4706 68.7602C36.3958 67.7945 35.3868 66.8289 34.409 65.8597L32.4881 67.4027C33.6601 68.7602 34.832 69.868 36.0369 70.7487H36.0386ZM29.1682 62.7184C29.4941 63.3182 29.8512 63.9441 30.243 64.5699L32.1969 63.0391C32.0009 62.6872 31.7738 62.3266 31.545 61.9174C31.3491 61.5065 31.089 61.0454 30.9261 60.6848C30.7302 60.3259 30.6002 60.0693 30.5031 59.8093L28.3204 60.9674C28.5804 61.5429 28.8422 62.1168 29.1682 62.7166V62.7184ZM26.5625 54.9724C26.6925 55.6849 26.8225 56.3281 26.9855 56.9696L29.2964 56.2709C29.1335 55.437 28.9705 54.6031 28.8734 54.0085C28.7764 53.4121 28.7764 53.055 28.7434 52.6961H26.3336C26.3995 53.478 26.4637 54.2599 26.5607 54.9724H26.5625ZM26.3024 49.1491L28.6793 49.5773C28.8422 48.7468 29.0052 47.9164 29.1682 47.3218C29.2982 46.7271 29.4282 46.3665 29.5582 46.0077L27.3444 45.0368C27.0843 45.8048 26.8243 46.5711 26.6613 47.2576C26.4983 47.9424 26.4012 48.5475 26.3024 49.1508V49.1491ZM28.5492 41.8278L30.699 42.8247C31.0249 42.3133 31.382 41.8088 31.675 41.3805C32.0009 40.9523 32.261 40.6004 32.4569 40.3664C32.6199 40.1306 32.7169 40.0127 32.8158 39.8965L31.0578 38.1005C30.6348 38.6206 30.243 39.1407 29.82 39.7613C29.397 40.382 28.9723 41.1049 28.5492 41.8278ZM16.4362 36.7309C15.0042 37.2839 13.7664 37.9583 12.4315 38.9777C11.7796 39.4874 11.1295 40.0664 10.4776 40.6975C9.82577 41.3268 9.17565 42.0064 8.58968 42.7363C7.97076 43.4661 7.41773 44.2445 6.96178 44.8999C6.53877 45.5552 6.24578 46.084 5.95279 46.6318C6.1799 48.0464 6.40874 49.4542 6.70173 50.7527C6.99472 52.0512 7.32064 53.2405 7.58069 54.1073C7.84074 54.9741 8.03664 55.5185 8.19961 56.0525C8.58968 57.1377 9.01442 58.2629 9.56746 59.4262C9.82751 60.0173 10.0876 60.6016 10.5123 61.3748C10.9024 62.148 11.4571 63.1067 11.8802 63.8088C12.3361 64.5092 12.6291 64.9513 12.955 65.3847C13.541 66.2273 14.1929 67.0542 14.8759 67.8639C15.2348 68.2557 15.5919 68.6405 16.1467 69.2022C16.7327 69.7639 17.5145 70.5007 18.3606 71.2133C19.2066 71.9258 20.1514 72.6141 21.0633 73.2122C21.9752 73.8103 22.8542 74.3183 23.832 74.8141C24.7768 75.3099 25.8517 75.7936 26.9248 76.2166C28.0326 76.6413 29.1057 77.0071 30.2465 77.3244C32.5904 77.9381 35.0331 78.5241 37.41 78.7876C38.6478 78.9072 39.8839 78.902 40.7958 78.9003C41.7406 78.8986 42.3595 78.8986 42.9767 78.8899C41.3159 77.9815 39.655 77.0228 38.3201 76.1923C37.0181 75.3619 35.9745 74.658 35.0643 73.9559C34.1195 73.2538 33.3064 72.5534 32.5575 71.8773C31.8415 71.2029 31.1896 70.5545 30.5707 69.8905C29.9847 69.2265 29.4317 68.5486 28.8769 67.7928C28.3239 67.0369 27.7691 66.203 27.2819 65.3691C26.7948 64.5352 26.3371 63.7013 25.947 62.8397C25.1651 61.1165 24.5462 59.2511 24.0591 57.4151C23.832 56.4963 23.6361 55.5948 23.5372 54.7314C23.4384 53.8681 23.4384 53.0411 23.4384 52.1743C23.4384 50.4458 23.4714 48.5232 23.8614 46.6561C24.2203 44.834 24.7733 43.0362 25.5552 41.2471C25.9782 40.3733 26.4342 39.5186 26.7931 38.8546C27.1831 38.1906 27.4761 37.7208 27.835 37.2683C27.086 36.9632 26.3042 36.6962 25.5552 36.4674C24.7733 36.2385 24.0244 36.0478 23.3084 35.9837C22.5924 35.9195 21.9076 35.9802 21.1587 35.9871C20.4097 35.9958 19.5967 35.9507 18.7818 36.0634C17.967 36.1761 17.1539 36.4448 16.4362 36.7257V36.7309ZM32.8158 36.2351L34.4437 37.7295C34.8996 37.1192 35.3556 36.509 35.8445 35.9542C36.3004 35.3994 36.8205 34.9001 37.3094 34.4009L35.7144 32.6343C35.3885 32.9168 35.0626 33.222 34.7054 33.6363C34.3466 34.0507 33.9236 34.5742 33.5664 35.0232C33.2405 35.4723 33.0134 35.8467 32.8175 36.2368L32.8158 36.2351ZM6.86296 26.3498C6.24404 26.3602 5.62513 26.4174 5.00622 26.374C4.3873 26.329 3.80133 26.1833 3.24829 25.9562C2.72819 26.1591 2.17342 26.3636 1.68627 26.6219C1.19738 26.8803 0.774365 27.1958 0.384293 27.5096C1.03615 27.7644 1.68627 28.0175 2.56523 28.2585C3.44419 28.4995 4.552 28.7266 5.69101 28.9537C5.52805 30.7186 5.43096 32.4886 5.36508 34.0663C5.33214 35.6422 5.36508 37.0256 5.36508 38.1681C5.39802 39.3088 5.43096 40.2086 5.43096 40.8847V42.3133C5.43096 42.6149 5.4639 42.7675 5.49684 42.9148C6.04988 42.1156 6.63585 41.3528 7.25477 40.6403C8.55674 39.1805 9.89165 38.0346 11.2266 37.1816C11.9114 36.7413 12.5944 36.3547 13.3104 36.0305C14.7424 35.3942 16.2403 34.8343 17.7711 34.6072C18.553 34.5066 19.3661 34.543 20.148 34.5482C20.8969 34.5534 21.6458 34.5274 22.4277 34.6002C23.1766 34.673 23.9915 34.8464 24.7387 35.0648C25.5205 35.2833 26.2365 35.5451 26.8225 35.7912C27.4085 36.0374 27.8644 36.268 28.3204 36.528C29.1352 35.5 29.9483 34.4719 30.6972 33.645C31.4132 32.818 32.0322 32.1887 32.684 31.5611C31.6091 30.4377 30.4372 29.4738 29.2964 28.8757C28.7434 28.5792 28.1904 28.3643 27.8315 28.2325C27.0496 27.9794 26.8555 27.9413 26.3666 27.8823C25.5847 27.8806 24.8358 27.8112 24.0556 28.0401C23.7956 28.1042 23.5667 28.1736 23.1766 28.3261C22.7848 28.4787 22.2977 28.711 21.8088 29.0196C21.3199 29.3264 20.8327 29.7079 20.4409 30.0563C20.0509 30.4065 19.7579 30.7255 19.4961 30.996C19.269 31.2664 19.0731 31.4883 18.9743 31.6547C18.8442 31.8212 18.7784 31.9321 18.7472 32.05C18.7142 31.5213 18.7142 30.9908 18.7142 30.4949C18.7142 29.9991 18.7472 29.538 18.6813 29.1132C18.6154 28.6885 18.4542 28.3019 18.2912 27.9603C18.0953 27.6205 17.8994 27.3258 17.6394 27.064C17.3793 26.8005 17.0863 26.5682 16.7604 26.3792C16.7604 26.7658 16.7275 27.1524 16.6304 27.5165C16.5333 27.8806 16.3703 28.2221 16.1744 28.5168C15.9785 28.8116 15.7826 29.0595 15.4914 29.271C14.6765 29.9436 13.7005 30.0893 12.7557 29.7824C12.4297 29.6766 12.1367 29.5137 11.8767 29.2831C11.2578 28.7838 10.8677 28.1042 10.7047 27.4801C10.5747 26.8664 10.5088 26.2388 10.6718 25.6806C10.0529 25.9857 9.40103 26.2007 8.75091 26.2891C8.13199 26.3775 7.48014 26.3394 6.86296 26.3498ZM12.6586 25.6892C12.4627 26.0394 12.4627 26.7745 12.6915 27.1958C12.7574 27.2998 12.8215 27.4125 12.8874 27.513C13.3763 27.9898 13.7022 28.0123 14.1894 27.9777C14.4165 27.9378 14.6124 27.8251 14.8083 27.6639C15.0042 27.5113 15.1013 27.3362 15.1672 27.1698C15.3631 26.8352 15.4602 26.1261 15.1013 25.5419C15.0042 25.3408 14.6453 25.079 14.3194 24.9403C14.0264 24.8207 13.9293 24.8554 13.7334 24.8727C13.5046 24.9334 13.1804 25.0148 12.8545 25.3963C12.7903 25.4829 12.7244 25.5766 12.6586 25.691V25.6892ZM15.5884 22.13C15.1984 22.5895 14.8724 22.9258 14.5136 23.2379C15.0354 23.2413 15.5555 23.3037 16.0444 23.4199C16.5003 23.5378 16.9234 23.7094 17.2163 23.8498C17.7694 24.1238 17.9323 24.3006 18.2583 24.5901C18.4212 24.7323 18.5513 24.8952 18.7142 25.0703C18.8772 25.2454 19.0072 25.4327 19.1702 25.7378C19.4961 26.3064 19.8862 27.1143 19.985 27.702C20.7998 26.9721 21.7429 26.4867 22.6548 26.2423C24.1856 25.899 25.7477 25.8175 27.3444 26.4625C27.8974 26.6636 28.4192 26.9115 28.941 27.2149C29.4611 27.5182 29.983 27.8788 30.406 28.2707C30.8619 28.6642 31.252 29.0889 31.5138 29.3993C31.7738 29.7113 31.9039 29.9072 32.0356 30.1465C32.3286 30.5938 32.6216 31.1069 32.7516 31.5195L34.9326 29.4651C34.3795 28.5602 33.7606 27.6847 33.1088 26.8733C32.4898 26.062 31.838 25.3182 31.1549 24.6074C28.518 21.8336 25.3593 19.7012 22.4606 18.7893C21.7776 18.5726 21.1257 18.4027 20.5727 18.3212C20.0509 18.2397 19.6279 18.2432 19.2707 18.2484C18.9119 18.2536 18.6518 18.2588 18.4888 18.2536C18.3259 18.2501 18.2929 18.2363 18.2288 18.2137C17.8387 18.9939 17.3828 19.7497 16.9268 20.4189C16.4709 21.0881 16.0149 21.6689 15.5919 22.1283L15.5884 22.13ZM10.5418 19.2886C10.1829 19.4533 9.85871 19.6388 9.53279 19.8312C9.20686 20.0237 8.88093 20.2248 8.39378 20.5836C7.90489 20.9408 7.22183 21.4539 6.73293 21.8665C6.27698 22.2791 5.95106 22.5929 5.69101 22.853C5.4639 23.113 5.268 23.3159 5.17091 23.4528C5.04089 23.5898 5.00795 23.6591 4.97501 23.7319C5.65807 23.8013 6.3758 23.8013 7.05886 23.7337C7.74192 23.6661 8.36084 23.5326 8.97975 23.3367C9.59867 23.1408 10.2176 22.8807 10.7706 22.5669C11.3237 22.2531 11.8767 21.8873 12.3656 21.4661C12.8874 21.0448 13.3746 20.5715 13.7334 20.1571C14.1235 19.7445 14.4165 19.3926 14.6453 19.0805C14.8742 18.7702 15.0371 18.4998 15.1672 18.3021C15.2972 18.1045 15.3943 17.9797 15.4602 17.8531C14.5812 18.023 13.6693 18.2207 13.0504 18.3871C12.3985 18.5535 12.0084 18.6887 11.6496 18.8309C11.2595 18.9731 10.9006 19.1204 10.5418 19.2851V19.2886ZM61.2754 9.21432C60.3306 11.5981 59.2245 13.9281 57.8237 16.298C56.4559 18.6298 54.8609 20.9026 53.0371 23.1494C52.1252 24.259 51.1492 25.3685 50.0743 26.5491C48.9665 27.7298 47.7304 28.9814 45.9395 30.6735C44.1816 32.3673 41.8689 34.5014 40.1439 36.1328C38.4501 37.7641 37.3111 38.8893 36.4322 39.822C35.5861 40.7547 34.9984 41.4932 34.4783 42.1902C32.9475 44.3191 32.1656 46.1672 31.7426 48.1851C31.5797 48.8734 31.4826 49.5651 31.4167 50.0488C31.3838 50.5325 31.3838 50.8082 31.3838 51.0942C31.4167 51.6663 31.3838 52.3268 31.4167 52.977C31.4826 53.6548 31.6456 54.3986 31.8085 55.196C31.9056 55.6121 32.0044 56.0213 32.1986 56.5899C32.3945 57.1603 32.6545 57.8919 32.9805 58.6304C33.3064 59.3689 33.7294 60.1161 34.0224 60.6675C34.3483 61.2188 34.6084 61.5742 34.8372 61.9226C35.3261 62.6039 35.8462 63.2558 36.4651 63.899C36.7581 64.2128 37.0511 64.5266 37.6041 65.012C38.1259 65.4974 38.8749 66.1579 39.7868 66.8375C40.7316 67.5171 41.7736 68.2175 43.0755 69.0115C44.4104 69.8055 45.9413 70.6949 47.2103 71.4144C48.4811 72.1338 49.4901 72.6817 50.499 73.2295C51.4751 73.7773 52.4858 74.3234 53.6907 74.9129C54.8626 75.5023 56.2634 76.1334 57.6313 76.7662C59.0321 77.3989 60.3999 78.0317 61.669 78.5622C62.9397 79.0945 64.1117 79.5261 65.2836 79.9526C66.4227 80.3791 67.5963 80.8038 68.8654 81.2234C70.1674 81.6447 71.5352 82.0625 72.7401 82.4179C73.945 82.7733 74.9869 83.0645 75.9647 83.1946C76.9095 83.3246 77.8526 83.2916 78.7004 83.2847C80.3283 83.2968 81.762 83.276 83.2911 82.8877C84.0401 82.7091 84.7561 82.4768 85.4721 82.189C86.188 81.9013 86.9058 81.558 87.5888 81.1749C88.2736 80.7917 88.8908 80.3704 89.4785 79.9058L65.7725 64.2318C66.6844 63.5002 67.5634 62.7305 68.3453 61.9816C69.1272 61.2326 69.8102 60.5028 70.4621 59.7417C71.1451 58.9823 71.764 58.1918 72.4159 57.3267C73.7179 55.5601 74.9557 53.5109 75.9005 51.5224C76.3894 50.5065 76.8124 49.4992 77.2025 48.4747C77.9844 46.4185 78.5704 44.1943 79.0263 41.9787C79.2534 40.8674 79.4164 39.7804 79.5152 38.8719C79.5811 37.9635 79.5811 37.2336 79.5152 36.509C78.9292 37.485 78.2774 38.4316 77.6585 39.262C77.0396 40.0907 76.4206 40.8032 75.7705 41.514C75.0875 42.2248 74.4027 42.9356 73.6208 43.6135C72.8718 44.2914 72.09 44.9363 71.2439 45.5448C69.5172 46.7774 67.6622 47.8263 65.8384 48.6186C64.8936 49.0208 63.9817 49.3658 63.2986 49.5981C62.6468 49.8321 62.2237 49.9535 61.7678 50.0783C61.2789 50.2031 60.7588 50.3279 60.367 50.4129C59.944 50.4978 59.651 50.5429 59.3251 50.5689C60.2699 49.7818 61.1489 48.9757 61.799 48.3828C62.4179 47.7881 62.808 47.405 63.1669 47.0219C63.9487 46.2226 64.6647 45.4044 65.3166 44.5479C65.6754 44.1024 66.0326 43.6499 66.5215 42.9339C67.0433 42.2179 67.6934 41.2367 68.2794 40.2467C68.8654 39.2568 69.3872 38.2582 69.8744 37.2649C70.3303 36.2715 70.7533 35.285 71.1434 34.2587C71.5352 33.2324 71.8594 32.1644 72.1853 31.0497C72.4783 29.935 72.7713 28.7734 73.0001 27.6067C73.2272 26.4399 73.4561 25.268 73.5532 24.1896C73.6503 23.1113 73.6503 22.1266 73.6191 21.1679C73.6191 20.2092 73.5861 19.2765 73.5861 18.5587V16.8389C73.4231 17.5376 73.229 18.2276 73.0001 18.9592C72.7401 19.6908 72.4142 20.4657 72.0241 21.2944C71.2093 22.9847 70.0044 24.8449 68.5394 26.6722C67.8234 27.6032 67.0086 28.5376 66.0967 29.5137C65.1848 30.4915 64.1429 31.5126 63.2969 32.3187C62.4179 33.1249 61.7331 33.7178 61.1801 34.1911C60.627 34.6644 60.204 35.0146 59.9093 35.2625C59.5834 35.5104 59.3892 35.656 59.1933 35.7964C60.4641 34.1425 61.4731 32.3915 62.2549 30.6458C62.645 29.7529 63.0039 28.8514 63.3298 27.9118C63.6228 26.9721 63.9158 25.9944 64.1446 24.9403C64.6335 22.8825 65.0565 20.4415 65.1536 18.1426C65.2195 17.0227 65.1866 15.9617 65.1866 14.9007C65.1866 13.8397 65.1866 12.777 65.1536 11.6224C65.0877 10.466 64.9907 9.21779 64.8277 7.90541C64.6647 6.59304 64.4376 5.21651 64.2417 4.11044C64.0458 3.00437 63.8829 2.16875 63.6557 1.3418C63.3298 2.75473 62.9727 4.15725 62.5809 5.47136C62.1579 6.78547 61.7349 8.01463 61.2789 9.20912L61.2754 9.21432Z" fill="#ECCC33"/>
</g>
</svg>
