<svg width="146" height="148" viewBox="0 0 146 148" fill="none" xmlns="http://www.w3.org/2000/svg">
<path d="M74.0239 0L106.026 32.002L74.0239 64.004L42.0219 32.002L74.0239 0Z" fill="#C7A125"/>
<path d="M0.114532 12.9532V76.1952L75.0398 147.057L145.901 76.1952V9.9054L71.4841 84.3227L0.114532 12.9532Z" fill="#DFDFDF"/>
<path d="M73.0961 31.8185C73.0961 33.4186 72.9226 34.8113 72.5754 35.9965C72.2368 37.1733 71.7627 38.1469 71.1531 38.9173C70.552 39.6877 69.8367 40.2634 69.007 40.6444C68.1858 41.0169 67.2968 41.2032 66.3401 41.2032C65.3835 41.2032 64.4945 41.0169 63.6733 40.6444C62.8606 40.2634 62.1536 39.6877 61.5525 38.9173C60.9514 38.1469 60.4816 37.1733 60.1429 35.9965C59.8043 34.8113 59.635 33.4186 59.635 31.8185C59.635 30.2099 59.8043 28.8172 60.1429 27.6404C60.4816 26.4636 60.9514 25.49 61.5525 24.7196C62.1536 23.9492 62.8606 23.3777 63.6733 23.0052C64.4945 22.6243 65.3835 22.4338 66.3401 22.4338C67.2968 22.4338 68.1858 22.6243 69.007 23.0052C69.8367 23.3777 70.552 23.9492 71.1531 24.7196C71.7627 25.49 72.2368 26.4636 72.5754 27.6404C72.9226 28.8172 73.0961 30.2099 73.0961 31.8185ZM69.8578 31.8185C69.8578 30.4893 69.7605 29.3887 69.5657 28.5167C69.371 27.6447 69.1086 26.9504 68.7784 26.434C68.4567 25.9176 68.0842 25.5578 67.6609 25.3546C67.2376 25.1429 66.7973 25.0371 66.3401 25.0371C65.8914 25.0371 65.4554 25.1429 65.0321 25.3546C64.6173 25.5578 64.249 25.9176 63.9273 26.434C63.6056 26.9504 63.3474 27.6447 63.1526 28.5167C62.9664 29.3887 62.8733 30.4893 62.8733 31.8185C62.8733 33.1477 62.9664 34.2483 63.1526 35.1203C63.3474 35.9923 63.6056 36.6865 63.9273 37.2029C64.249 37.7194 64.6173 38.0834 65.0321 38.2951C65.4554 38.4983 65.8914 38.5999 66.3401 38.5999C66.7973 38.5999 67.2376 38.4983 67.6609 38.2951C68.0842 38.0834 68.4567 37.7194 68.7784 37.2029C69.1086 36.6865 69.371 35.9923 69.5657 35.1203C69.7605 34.2483 69.8578 33.1477 69.8578 31.8185ZM86.8767 38.6506V41H76.7174V38.6506H80.4382V27.9452C80.4382 27.5219 80.4509 27.0859 80.4763 26.6372L77.8349 28.8469C77.6825 28.9654 77.5301 29.0416 77.3777 29.0754C77.2338 29.1008 77.0941 29.1008 76.9587 29.0754C76.8317 29.05 76.7174 29.0077 76.6158 28.9485C76.5142 28.8807 76.438 28.8088 76.3872 28.7326L75.3967 27.3738L80.997 22.6116H83.5749V38.6506H86.8767Z" fill="white"/>
</svg>
