<svg width="138" height="138" viewBox="0 0 138 138" fill="none" xmlns="http://www.w3.org/2000/svg">
<circle cx="68.5757" cy="68.5758" r="68.3217" stroke="#797676" stroke-width="0.507968"/>
<g clip-path="url(#clip0_10_9)">
<path d="M63.845 39.442C63.165 39.56 62.484 39.703 61.819 39.867L62.299 41.808C62.917 41.656 63.552 41.522 64.187 41.412L63.845 39.442Z" fill="#273D66"/>
<path d="M55.985 41.968C55.368 42.267 54.753 42.591 54.155 42.931L55.145 44.669C55.704 44.351 56.28 44.047 56.856 43.769L55.985 41.968Z" fill="#273D66"/>
<path d="M59.827 40.432C59.175 40.642 58.52 40.878 57.882 41.133L58.624 42.99C59.221 42.752 59.832 42.531 60.44 42.336L59.827 40.432Z" fill="#273D66"/>
<path d="M67.958 39.019C67.271 39.042 66.578 39.09 65.896 39.16L66.099 41.15C66.737 41.085 67.385 41.04 68.028 41.017L67.958 39.019Z" fill="#273D66"/>
<path d="M81.993 41.957L81.124 43.758C81.695 44.033 82.27 44.336 82.833 44.656L83.823 42.918C83.221 42.575 82.604 42.252 81.993 41.957Z" fill="#273D66"/>
<path d="M85.584 44.004L84.475 45.668C85.013 46.026 85.541 46.404 86.046 46.793L87.265 45.207C86.725 44.792 86.158 44.387 85.584 44.004Z" fill="#273D66"/>
<path d="M74.136 39.439L73.798 41.41C74.424 41.517 75.059 41.65 75.685 41.804L76.162 39.863C75.49 39.697 74.809 39.555 74.136 39.439Z" fill="#273D66"/>
<path d="M78.152 40.426L77.541 42.33C78.149 42.525 78.76 42.744 79.357 42.982L80.097 41.125C79.458 40.87 78.804 40.635 78.152 40.426Z" fill="#273D66"/>
<path d="M70.026 39.019L69.962 41.017C70.593 41.038 71.24 41.081 71.886 41.148L72.089 39.158C71.397 39.087 70.703 39.04 70.026 39.019Z" fill="#273D66"/>
<path d="M52.396 44.0179C51.834 44.3919 51.275 44.7919 50.734 45.2079L51.955 46.7919C52.459 46.4039 52.98 46.0309 53.504 45.6819L52.396 44.0179Z" fill="#273D66"/>
<path d="M69.972 96.983L70.042 98.981C70.729 98.958 71.422 98.91 72.104 98.84L71.901 96.85C71.263 96.916 70.614 96.961 69.972 96.983Z" fill="#273D66"/>
<path d="M73.813 96.587L74.155 98.558C74.835 98.44 75.516 98.297 76.181 98.133L75.701 96.192C75.083 96.344 74.448 96.478 73.813 96.587Z" fill="#273D66"/>
<path d="M77.5601 95.664L78.1731 97.568C78.8251 97.358 79.4801 97.122 80.1181 96.867L79.3761 95.01C78.7791 95.248 78.1681 95.469 77.5601 95.664Z" fill="#273D66"/>
<path d="M84.496 92.318L85.603 93.982C86.165 93.608 86.724 93.208 87.265 92.792L86.044 91.208C85.541 91.596 85.02 91.969 84.496 92.318Z" fill="#273D66"/>
<path d="M81.144 94.2311L82.015 96.0321C82.632 95.7331 83.247 95.4091 83.845 95.0691L82.855 93.3311C82.296 93.6491 81.72 93.9531 81.144 94.2311Z" fill="#273D66"/>
<path d="M57.902 96.8749C58.542 97.1299 59.196 97.3649 59.847 97.5739L60.458 95.6699C59.85 95.4749 59.239 95.2559 58.642 95.0179L57.902 96.8749Z" fill="#273D66"/>
<path d="M50.735 92.793C51.275 93.208 51.841 93.613 52.416 93.996L53.525 92.332C52.987 91.974 52.459 91.596 51.954 91.207L50.735 92.793Z" fill="#273D66"/>
<path d="M54.177 95.082C54.78 95.425 55.396 95.748 56.007 96.043L56.876 94.242C56.305 93.967 55.73 93.664 55.167 93.344L54.177 95.082Z" fill="#273D66"/>
<path d="M65.911 98.843C66.602 98.913 67.297 98.96 67.973 98.982L68.037 96.984C67.406 96.963 66.759 96.92 66.113 96.853L65.911 98.843Z" fill="#273D66"/>
<path d="M61.839 98.138C62.51 98.303 63.192 98.446 63.864 98.561L64.202 96.59C63.576 96.483 62.941 96.35 62.315 96.196L61.839 98.138Z" fill="#273D66"/>
<g clip-path="url(#clip1_10_9)">
<path fill-rule="evenodd" clip-rule="evenodd" d="M88.6875 90.2188H89.0156C89.3438 90.2188 89.5625 90.1094 89.6719 89.7812L90.6562 88.1406L92.2969 87.2656C92.5156 87.0469 92.7344 86.8281 92.7344 86.5V84.5312L93.7188 82.8906C93.8281 82.5625 93.8281 82.2344 93.7188 82.0156L92.7344 80.2656V78.4062C92.7344 78.0781 92.5156 77.75 92.2969 77.6406L90.6562 76.7656L91.9688 77.5312L90.6562 76.6562L89.6719 75.125C89.6719 75.0156 89.5625 74.9062 89.5625 74.7969C89.3438 74.6875 89.125 74.5781 89.0156 74.5781H87.0469L85.2969 73.5938C85.0781 73.4844 84.75 73.4844 84.5312 73.5938L82.6719 74.5781H80.8125C80.4844 74.5781 80.1562 74.7969 80.0469 75.0156L79.0625 76.6562L77.5312 77.6406C77.2031 77.75 77.0938 78.0781 77.0938 78.2969L76.9844 80.2656L76.1094 82.0156C75.8906 82.2344 75.8906 82.5625 76.1094 82.7812L76.9844 84.5312L77.0938 86.2812V84.5312V86.5C77.0938 86.8281 77.3125 87.0469 77.5312 87.2656L79.1719 88.1406L80.1562 89.7812C80.2656 90.1094 80.5938 90.2188 80.8125 90.2188C81.0312 90.2188 88.0312 90.2188 88.6875 90.2188ZM84.9688 86.5C83 86.5 81.3594 84.9688 81.3594 83C81.3594 81.0312 83 79.5 84.9688 79.5C86.8281 79.5 88.4688 81.0312 88.4688 83C88.4688 84.8594 86.9375 86.5 84.9688 86.5Z" fill="#C7A125"/>
<path fill-rule="evenodd" clip-rule="evenodd" d="M87.9219 103.125C87.5938 103.125 87.375 103.016 87.2656 102.797L86.9375 102.469H86.8281L86.2812 101.812L85.5156 100.938H85.4062L84.9688 100.281L84.6406 100.609L84.4219 100.828C84.4219 100.828 84.4219 100.938 84.3125 100.938L83.7656 101.484L83.6562 101.703C83.5469 101.703 83.5469 101.812 83.5469 101.812L83 102.359L82.7812 102.578L82.5625 102.797C82.3438 103.016 81.9062 103.125 81.6875 103.016C81.3594 102.906 81.1406 102.578 81.1406 102.25V91.75C84.0938 91.75 85.7344 91.75 88.7969 91.75V102.25C88.7969 102.578 88.5781 103.016 88.25 103.016C88.0312 103.125 87.9219 103.125 87.9219 103.125Z" fill="#273D66"/>
<path fill-rule="evenodd" clip-rule="evenodd" d="M46.9062 52.1562H91.0938C92.625 52.1562 93.7188 53.25 93.7188 54.6719V76.9844C94.0469 77.3125 94.2656 77.8594 94.2656 78.2969V79.8281L95.0312 81.25C95.4688 82.0156 95.4688 82.8906 95.0312 83.5469L94.2656 84.9688V86.5C94.2656 87.375 93.8281 88.1406 93.0625 88.5781L91.75 89.3438L91.0938 90.5469C90.9844 90.7656 90.7656 90.9844 90.5469 91.2031H95.5781C96.3438 91.2031 97 90.5469 97 89.7812V85.1875V50.2969C97 49.5312 96.3438 48.875 95.5781 48.875H42.4219C41.6562 48.875 41 49.5312 41 50.2969V89.6719C41 90.4375 41.6562 91.0938 42.4219 91.0938H79.1719C79.0625 90.9844 78.9531 90.7656 78.8438 90.6562L78.0781 89.3438L76.7656 88.5781C76.4375 88.3594 76.2188 88.1406 76.1094 87.9219H46.9062C45.4844 87.9219 44.2812 86.7188 44.2812 85.4062V54.6719C44.2812 53.25 45.4844 52.1562 46.9062 52.1562Z" fill="#273D66"/>
<path fill-rule="evenodd" clip-rule="evenodd" d="M77.75 69.2188V60.25C77.75 59.8125 78.1875 59.375 78.625 59.375H87.4844C88.0312 59.375 88.3594 59.8125 88.3594 60.25V69.2188C88.3594 69.6562 88.0312 70.0938 87.4844 70.0938H78.625C78.1875 70.0938 77.75 69.6562 77.75 69.2188ZM91.9688 75.7812V54.6719C91.9688 54.2344 91.5312 53.7969 91.0938 53.7969H46.9062C46.3594 53.7969 46.0312 54.2344 46.0312 54.6719V85.4062C46.0312 85.8438 46.4688 86.2812 46.9062 86.2812H75.5625V84.9688L74.7969 83.5469C74.3594 82.8906 74.3594 82.0156 74.7969 81.25L75.5625 79.8281V78.2969C75.5625 77.5312 76 76.7656 76.7656 76.3281L77.9688 75.5625L78.7344 74.25C79.1719 73.5938 79.9375 73.1562 80.8125 73.1562L82.3438 73.0469L83.7656 72.2812C84.5312 71.8438 85.4062 71.8438 86.0625 72.2812L87.4844 73.0469L89.0156 73.1562C89.8906 73.1562 90.6562 73.5938 91.0938 74.3594L91.75 75.5625L91.9688 75.7812ZM68.6719 61.0156C69.1094 61.0156 69.5469 61.4531 69.5469 61.8906C69.5469 62.4375 69.1094 62.7656 68.6719 62.7656H50.9531C50.5156 62.7656 50.0781 62.4375 50.0781 61.8906C50.0781 61.4531 50.5156 61.0156 50.9531 61.0156H68.6719ZM50.9531 66.2656H68.6719C69.1094 66.2656 69.5469 66.7031 69.5469 67.1406C69.5469 67.6875 69.1094 68.0156 68.6719 68.0156H50.9531C50.5156 68.0156 50.0781 67.5781 50.0781 67.1406C50.0781 66.5938 50.5156 66.2656 50.9531 66.2656ZM50.9531 71.4062H68.6719C69.1094 71.4062 69.5469 71.7344 69.5469 72.2812C69.5469 72.7188 69.1094 73.1562 68.6719 73.1562H50.9531C50.5156 73.1562 50.0781 72.7188 50.0781 72.2812C50.0781 71.7344 50.5156 71.4062 50.9531 71.4062ZM53.1406 77.0938H67.4688C69.1094 77.0938 70.4219 78.5156 70.4219 80.1562C70.4219 81.9062 69.1094 83.2188 67.4688 83.2188H53.1406C51.3906 83.2188 50.0781 81.9062 50.0781 80.1562C50.0781 78.5156 51.3906 77.0938 53.1406 77.0938Z" fill="#273D66"/>
<path fill-rule="evenodd" clip-rule="evenodd" d="M79.5 68.3438H86.7188V61.125H79.5V68.3438Z" fill="#C7A125"/>
<path fill-rule="evenodd" clip-rule="evenodd" d="M84.9688 84.9688C86.0625 84.9688 86.9375 84.0938 86.9375 83C86.9375 81.9062 86.0625 81.0312 84.9688 81.0312C83.7656 81.0312 82.8906 81.9062 82.8906 83C82.8906 84.0938 83.7656 84.9688 84.9688 84.9688Z" fill="#273D66"/>
<path d="M67.4026 78.625H53.1406C52.2949 78.625 51.6094 79.2988 51.6094 80.1301C51.6094 80.9613 52.2949 81.6351 53.1406 81.6351H67.4026C68.2483 81.6351 68.9338 80.9613 68.9338 80.1301C68.9338 79.2988 68.2483 78.625 67.4026 78.625Z" fill="#273D66"/>
<path fill-rule="evenodd" clip-rule="evenodd" d="M53.1406 81.6875H67.4688C68.2344 81.6875 68.8906 81.0312 68.8906 80.1562C68.8906 79.3906 68.2344 78.625 67.4688 78.625H53.1406C52.2656 78.625 51.6094 79.3906 51.6094 80.1562C51.6094 81.0312 52.2656 81.6875 53.1406 81.6875Z" fill="#C7A125"/>
</g>
</g>
<defs>
<clipPath id="clip0_10_9">
<rect width="64" height="64" fill="white" transform="translate(37 37)"/>
</clipPath>
<clipPath id="clip1_10_9">
<rect width="56" height="56" fill="white" transform="translate(41 48)"/>
</clipPath>
</defs>
</svg>
