<svg width="138" height="138" viewBox="0 0 138 138" fill="none" xmlns="http://www.w3.org/2000/svg">
<circle cx="69.2829" cy="68.735" r="68.3217" stroke="#797676" stroke-width="0.507968"/>
<path d="M63 93C64.6569 93 66 91.6569 66 90C66 88.3431 64.6569 87 63 87C61.3431 87 60 88.3431 60 90C60 91.6569 61.3431 93 63 93Z" fill="#273D66"/>
<path d="M56 96V100H70V96C70 95.4696 69.7893 94.9609 69.4142 94.5858C69.0391 94.2107 68.5304 94 68 94H58C57.4696 94 56.9609 94.2107 56.5858 94.5858C56.2107 94.9609 56 95.4696 56 96Z" fill="#273D66"/>
<path d="M81 93C82.6569 93 84 91.6569 84 90C84 88.3431 82.6569 87 81 87C79.3431 87 78 88.3431 78 90C78 91.6569 79.3431 93 81 93Z" fill="#273D66"/>
<path d="M74 96V100H88V96C88 95.4696 87.7893 94.9609 87.4142 94.5858C87.0391 94.2107 86.5304 94 86 94H76C75.4696 94 74.9609 94.2107 74.5858 94.5858C74.2107 94.9609 74 95.4696 74 96Z" fill="#273D66"/>
<path d="M45 93C46.6569 93 48 91.6569 48 90C48 88.3431 46.6569 87 45 87C43.3431 87 42 88.3431 42 90C42 91.6569 43.3431 93 45 93Z" fill="#273D66"/>
<path d="M52 96C52 95.4696 51.7893 94.9609 51.4142 94.5858C51.0391 94.2107 50.5304 94 50 94H40C39.4696 94 38.9609 94.2107 38.5858 94.5858C38.2107 94.9609 38 95.4696 38 96V100H52V96Z" fill="#273D66"/>
<path d="M99 38H39C38.7348 38 38.4804 38.1054 38.2929 38.2929C38.1054 38.4804 38 38.7348 38 39V75C38 75.2652 38.1054 75.5196 38.2929 75.7071C38.4804 75.8946 38.7348 76 39 76H76V79C76 79.2652 76.1054 79.5196 76.2929 79.7071C76.4804 79.8946 76.7348 80 77 80H93C93.2652 80 93.5196 79.8946 93.7071 79.7071C93.8946 79.5196 94 79.2652 94 79V76H99C99.2652 76 99.5196 75.8946 99.7071 75.7071C99.8946 75.5196 100 75.2652 100 75V61H98V74H94V67C93.9995 66.0276 93.7154 65.0764 93.1826 64.2629C92.6498 63.4494 91.8913 62.809 91 62.42V62.33L94.94 59.71C96.1899 58.8775 97.2146 57.749 97.923 56.4248C98.6313 55.1005 99.0013 53.6218 99 52.12C99 49.7012 98.0391 47.3815 96.3288 45.6712C94.6185 43.9609 92.2988 43 89.88 43H78C77.606 42.9869 77.2133 43.0515 76.8443 43.1901C76.4753 43.3287 76.1373 43.5387 75.8494 43.808C75.5615 44.0773 75.3295 44.4006 75.1666 44.7596C75.0037 45.1185 74.9131 45.506 74.9 45.9C74.8869 46.294 74.9515 46.6867 75.0901 47.0557C75.2287 47.4247 75.4387 47.7627 75.708 48.0506C75.9773 48.3385 76.3006 48.5705 76.6596 48.7334C77.0185 48.8963 77.406 48.9869 77.8 49C77.2949 49.5446 77.0099 50.2573 77 51V59C76.9941 60.0828 77.3456 61.1373 78 62H77.2L71.04 59L70.91 58.95C70.4748 58.8026 70.011 58.7593 69.556 58.8236C69.101 58.8879 68.6674 59.0579 68.29 59.32L65 56.49C64.8744 55.8049 64.5143 55.1848 63.9814 54.7361C63.4486 54.2875 62.7763 54.0383 62.0797 54.0312C61.3832 54.0241 60.7059 54.2596 60.1641 54.6973C59.6222 55.135 59.2495 55.7476 59.11 56.43L54.6 59.43C54.3278 58.9867 53.945 58.6217 53.4892 58.371C53.0334 58.1203 52.5202 57.9925 52 58C51.3532 58.005 50.7253 58.219 50.21 58.61L46.31 47.69C46.9439 47.3817 47.449 46.86 47.7367 46.2165C48.0244 45.5729 48.0762 44.8486 47.8832 44.1707C47.6902 43.4927 47.2646 42.9043 46.6811 42.5088C46.0976 42.1133 45.3934 41.9359 44.6922 42.0078C43.9909 42.0796 43.3374 42.3961 42.8462 42.9017C42.355 43.4073 42.0575 44.0697 42.0059 44.7727C41.9544 45.4757 42.152 46.1745 42.5642 46.7463C42.9764 47.3182 43.5767 47.7266 44.26 47.9L49 61.24C49.0701 61.9526 49.3928 62.6166 49.9097 63.112C50.4266 63.6074 51.1037 63.9017 51.8186 63.9415C52.5335 63.9814 53.2391 63.7642 53.8079 63.3293C54.3766 62.8944 54.7711 62.2704 54.92 61.57L59.43 58.57C59.6936 58.9893 60.0569 59.3368 60.4875 59.5815C60.9181 59.8262 61.4026 59.9605 61.8978 59.9724C62.3929 59.9843 62.8833 59.8734 63.3251 59.6496C63.767 59.4258 64.1466 59.0962 64.43 58.69L67.1 60.91C67.0129 61.1886 66.9658 61.4782 66.96 61.77C66.9614 62.3127 67.1101 62.8449 67.3901 63.3098C67.6701 63.7747 68.071 64.1549 68.55 64.41L76 69.52V74H40V40H98V43H100V39C100 38.7348 99.8946 38.4804 99.7071 38.2929C99.5196 38.1054 99.2652 38 99 38ZM79 51C79 50.7348 79.1054 50.4804 79.2929 50.2929C79.4804 50.1054 79.7348 50 80 50H88C88.2652 50 88.5196 50.1054 88.7071 50.2929C88.8946 50.4804 89 50.7348 89 51V53C89 53.2652 89.1054 53.5196 89.2929 53.7071C89.4804 53.8946 89.7348 54 90 54C90.2652 54 90.5196 54.1054 90.7071 54.2929C90.8946 54.4804 91 54.7348 91 55C91 55.2652 90.8946 55.5196 90.7071 55.7071C90.5196 55.8946 90.2652 56 90 56C89.7348 56 89.4804 56.1054 89.2929 56.2929C89.1054 56.4804 89 56.7348 89 57V62H82C81.5112 62.0002 81.0297 61.881 80.5975 61.6527C80.1653 61.4244 79.7954 61.0939 79.52 60.69C80.252 60.3893 80.8784 59.8781 81.3199 59.2213C81.7613 58.5644 81.998 57.7914 82 57H80C79.9979 57.349 79.9045 57.6914 79.729 57.9932C79.5536 58.2949 79.3023 58.5455 79 58.72V51ZM45 46C44.8022 46 44.6089 45.9414 44.4444 45.8315C44.28 45.7216 44.1518 45.5654 44.0761 45.3827C44.0004 45.2 43.9806 44.9989 44.0192 44.8049C44.0578 44.6109 44.153 44.4327 44.2929 44.2929C44.4327 44.153 44.6109 44.0578 44.8049 44.0192C44.9989 43.9806 45.2 44.0004 45.3827 44.0761C45.5654 44.1518 45.7216 44.28 45.8315 44.4444C45.9414 44.6089 46 44.8022 46 45C46 45.2652 45.8946 45.5196 45.7071 45.7071C45.5196 45.8946 45.2652 46 45 46ZM52 62C51.8022 62 51.6089 61.9414 51.4444 61.8315C51.28 61.7216 51.1518 61.5654 51.0761 61.3827C51.0004 61.2 50.9806 60.9989 51.0192 60.8049C51.0578 60.6109 51.153 60.4327 51.2929 60.2929C51.4327 60.153 51.6109 60.0578 51.8049 60.0192C51.9989 59.9806 52.2 60.0004 52.3827 60.0761C52.5654 60.1518 52.7216 60.28 52.8315 60.4444C52.9414 60.6089 53 60.8022 53 61C53 61.2652 52.8946 61.5196 52.7071 61.7071C52.5196 61.8946 52.2652 62 52 62ZM62 58C61.8022 58 61.6089 57.9414 61.4444 57.8315C61.28 57.7216 61.1518 57.5654 61.0761 57.3827C61.0004 57.2 60.9806 56.9989 61.0192 56.8049C61.0578 56.6109 61.153 56.4327 61.2929 56.2929C61.4327 56.153 61.6109 56.0578 61.8049 56.0192C61.9989 55.9806 62.2 56.0004 62.3827 56.0761C62.5654 56.1518 62.7216 56.28 62.8315 56.4444C62.9414 56.6089 63 56.8022 63 57C63 57.2652 62.8946 57.5196 62.7071 57.7071C62.5196 57.8946 62.2652 58 62 58Z" fill="#C7A125"/>
<path d="M84 54C84.2652 54 84.5196 54.1054 84.7071 54.2929C84.8946 54.4804 85 54.7348 85 55H87C87 54.2044 86.6839 53.4413 86.1213 52.8787C85.5587 52.3161 84.7956 52 84 52C83.2044 52 82.4413 52.3161 81.8787 52.8787C81.3161 53.4413 81 54.2044 81 55H83C83 54.7348 83.1054 54.4804 83.2929 54.2929C83.4804 54.1054 83.7348 54 84 54Z" fill="#273D66"/>
</svg>
