<svg width="146" height="148" viewBox="0 0 146 148" fill="none" xmlns="http://www.w3.org/2000/svg">
<path d="M73.1614 0L105.163 32.002L73.1614 64.004L41.1594 32.002L73.1614 0Z" fill="#C7A125"/>
<path d="M0.013916 12.9532V76.1952L74.9392 147.057L145.801 76.1952V9.9054L71.3834 84.3227L0.013916 12.9532Z" fill="#DFDFDF"/>
<path d="M72.0961 31.8185C72.0961 33.4186 71.9226 34.8113 71.5754 35.9965C71.2368 37.1733 70.7627 38.1469 70.1531 38.9173C69.552 39.6877 68.8367 40.2634 68.007 40.6444C67.1858 41.0169 66.2968 41.2032 65.3401 41.2032C64.3835 41.2032 63.4945 41.0169 62.6733 40.6444C61.8606 40.2634 61.1536 39.6877 60.5525 38.9173C59.9514 38.1469 59.4816 37.1733 59.1429 35.9965C58.8043 34.8113 58.635 33.4186 58.635 31.8185C58.635 30.2099 58.8043 28.8172 59.1429 27.6404C59.4816 26.4636 59.9514 25.49 60.5525 24.7196C61.1536 23.9492 61.8606 23.3777 62.6733 23.0052C63.4945 22.6243 64.3835 22.4338 65.3401 22.4338C66.2968 22.4338 67.1858 22.6243 68.007 23.0052C68.8367 23.3777 69.552 23.9492 70.1531 24.7196C70.7627 25.49 71.2368 26.4636 71.5754 27.6404C71.9226 28.8172 72.0961 30.2099 72.0961 31.8185ZM68.8578 31.8185C68.8578 30.4893 68.7605 29.3887 68.5657 28.5167C68.371 27.6447 68.1086 26.9504 67.7784 26.434C67.4567 25.9176 67.0842 25.5578 66.6609 25.3546C66.2376 25.1429 65.7973 25.0371 65.3401 25.0371C64.8914 25.0371 64.4554 25.1429 64.0321 25.3546C63.6173 25.5578 63.249 25.9176 62.9273 26.434C62.6056 26.9504 62.3474 27.6447 62.1526 28.5167C61.9664 29.3887 61.8733 30.4893 61.8733 31.8185C61.8733 33.1477 61.9664 34.2483 62.1526 35.1203C62.3474 35.9923 62.6056 36.6865 62.9273 37.2029C63.249 37.7194 63.6173 38.0834 64.0321 38.2951C64.4554 38.4983 64.8914 38.5999 65.3401 38.5999C65.7973 38.5999 66.2376 38.4983 66.6609 38.2951C67.0842 38.0834 67.4567 37.7194 67.7784 37.2029C68.1086 36.6865 68.371 35.9923 68.5657 35.1203C68.7605 34.2483 68.8578 33.1477 68.8578 31.8185ZM74.1046 27.7547C74.2316 26.8743 74.4771 26.1038 74.8411 25.4435C75.2052 24.7747 75.6581 24.2201 76.1999 23.7799C76.7502 23.3312 77.3767 22.9968 78.0794 22.7766C78.7906 22.5481 79.5525 22.4338 80.3653 22.4338C81.2119 22.4338 81.9738 22.5565 82.6511 22.802C83.3369 23.0391 83.9211 23.3735 84.4036 23.8053C84.8862 24.2286 85.2545 24.7281 85.5085 25.3038C85.7709 25.8795 85.9021 26.5017 85.9021 27.1706C85.9021 27.7547 85.8344 28.2712 85.6989 28.7199C85.572 29.1601 85.3857 29.5453 85.1402 29.8755C84.8947 30.2057 84.5899 30.4851 84.2258 30.7136C83.8618 30.9422 83.4512 31.1327 82.994 31.2851C84.0946 31.6322 84.9158 32.1614 85.4577 32.8725C85.9995 33.5837 86.2704 34.4768 86.2704 35.552C86.2704 36.4664 86.1011 37.2749 85.7624 37.9776C85.4238 38.6803 84.9666 39.2729 84.3909 39.7555C83.8152 40.2296 83.1464 40.5894 82.3845 40.8349C81.631 41.0804 80.8309 41.2032 79.9843 41.2032C79.0615 41.2032 78.2572 41.0974 77.5715 40.8857C76.8857 40.6741 76.2888 40.3608 75.7809 39.946C75.2729 39.5311 74.8411 39.0232 74.4856 38.4221C74.13 37.821 73.8252 37.1267 73.5712 36.3394L74.9554 35.7679C75.3195 35.6155 75.6581 35.5774 75.9714 35.6536C76.2931 35.7214 76.5259 35.8907 76.6698 36.1616C76.8222 36.4579 76.9873 36.75 77.1651 37.0378C77.3513 37.3257 77.5715 37.5839 77.8254 37.8125C78.0794 38.0326 78.3757 38.2146 78.7144 38.3586C79.0615 38.494 79.4721 38.5618 79.9462 38.5618C80.4796 38.5618 80.9452 38.4771 81.3431 38.3078C81.741 38.13 82.0712 37.9014 82.3337 37.622C82.6046 37.3426 82.8035 37.0336 82.9305 36.695C83.066 36.3479 83.1337 36.0007 83.1337 35.6536C83.1337 35.2134 83.0871 34.8155 82.994 34.4599C82.9009 34.0959 82.7062 33.7869 82.4099 33.5329C82.1135 33.2789 81.686 33.0799 81.1272 32.936C80.5769 32.7921 79.8361 32.7201 78.9049 32.7201V30.4851C79.6753 30.4766 80.3145 30.4046 80.8225 30.2692C81.3304 30.1337 81.7326 29.9475 82.0289 29.7104C82.3337 29.4649 82.5453 29.1728 82.6638 28.8342C82.7824 28.4955 82.8416 28.123 82.8416 27.7166C82.8416 26.8531 82.6003 26.197 82.1178 25.7483C81.6352 25.2996 80.9918 25.0752 80.1875 25.0752C79.815 25.0752 79.4721 25.1302 79.1589 25.2403C78.8456 25.3419 78.562 25.49 78.308 25.6848C78.0625 25.871 77.8551 26.0911 77.6857 26.3451C77.5164 26.5991 77.3894 26.8785 77.3048 27.1833C77.1608 27.5727 76.9704 27.8309 76.7333 27.9579C76.5047 28.0849 76.1788 28.1145 75.7555 28.0468L74.1046 27.7547Z" fill="white"/>
</svg>
